<svg xmlns="http://www.w3.org/2000/svg" viewBox="0 0 1200 630">
  <defs>
    <linearGradient id="bg" x1="0" x2="1" y1="0" y2="1">
      <stop offset="0%" stop-color="#0b1020"/>
      <stop offset="100%" stop-color="#121933"/>
    </linearGradient>
    <linearGradient id="line" x1="0" x2="1" y1="0" y2="0">
      <stop offset="0%" stop-color="#49d4ff"/>
      <stop offset="100%" stop-color="#9d7bff"/>
    </linearGradient>
  </defs>
  <rect width="1200" height="630" fill="url(#bg)"/>
  <rect x="64" y="70" width="1072" height="490" rx="34" fill="rgba(255,255,255,0.04)" stroke="rgba(255,255,255,0.16)"/>
  <rect x="110" y="130" width="240" height="320" rx="22" fill="#171f3d" stroke="rgba(255,255,255,0.12)"/>
  <rect x="385" y="130" width="420" height="320" rx="22" fill="#171f3d" stroke="rgba(255,255,255,0.12)"/>
  <rect x="840" y="130" width="250" height="320" rx="22" fill="#171f3d" stroke="rgba(255,255,255,0.12)"/>
  <rect x="118" y="154" width="140" height="18" rx="9" fill="url(#line)"/>
  <rect x="118" y="196" width="180" height="12" rx="6" fill="rgba(255,255,255,0.2)"/>
  <rect x="118" y="224" width="160" height="12" rx="6" fill="rgba(255,255,255,0.16)"/>
  <rect x="118" y="252" width="190" height="12" rx="6" fill="rgba(255,255,255,0.16)"/>
  <rect x="410" y="166" width="160" height="20" rx="10" fill="url(#line)"/>
  <rect x="410" y="216" width="320" height="14" rx="7" fill="rgba(255,255,255,0.18)"/>
  <rect x="410" y="246" width="280" height="14" rx="7" fill="rgba(255,255,255,0.14)"/>
  <rect x="410" y="276" width="340" height="14" rx="7" fill="rgba(255,255,255,0.14)"/>
  <rect x="410" y="332" width="130" height="38" rx="19" fill="#49d4ff"/>
  <rect x="866" y="160" width="120" height="16" rx="8" fill="url(#line)"/>
  <circle cx="902" cy="236" r="42" fill="rgba(73,212,255,0.18)" stroke="#49d4ff"/>
  <circle cx="1018" cy="236" r="42" fill="rgba(157,123,255,0.18)" stroke="#9d7bff"/>
  <text x="110" y="520" fill="#eef2ff" font-size="54" font-family="Arial, Helvetica, sans-serif" font-weight="700">Neonix</text>
  <text x="110" y="566" fill="#b7c0e0" font-size="28" font-family="Arial, Helvetica, sans-serif">Bachelor thesis landing page • Content stage</text>
</svg>
